HIERARCHY
ROOT Hips
{
	OFFSET -3.958830 18.904000 13.208200
	CHANNELS 6 Xposition Yposition Zposition Zrotation Yrotation Xrotation 
	JOINT LHipJoint
	{
		OFFSET 0.000000 0.000000 0.000000
		CHANNELS 3 Zrotation Yrotation Xrotation
		JOINT LeftUpLeg
		{
			OFFSET 1.800000 -1.400000 0.085000
			CHANNELS 3 Zrotation Yrotation Xrotation
			JOINT LeftLeg
			{
				OFFSET 2.215000 -6.000000 0.000000
				CHANNELS 3 Zrotation Yrotation Xrotation
				JOINT LeftFoot
				{
					OFFSET 2.500000 -6.900000 0.000000
					CHANNELS 3 Zrotation Yrotation Xrotation
					JOINT LeftToeBase
					{
						OFFSET 0.200000 -0.500000 1.950000
						CHANNELS 3 Zrotation Yrotation Xrotation
						End Site
						{
							OFFSET 0.000000 0.000000 0.000000
						}
					}
				}
			}
		}
	}
	JOINT RHipJoint
	{
		OFFSET 0.000000 0.000000 0.000000
		CHANNELS 3 Zrotation Yrotation Xrotation
		JOINT RightUpLeg
		{
			OFFSET -1.800000 -1.400000 0.085000
			CHANNELS 3 Zrotation Yrotation Xrotation
			JOINT RightLeg
			{
				OFFSET -2.215000 -6.000000 0.000000
				CHANNELS 3 Zrotation Yrotation Xrotation
				JOINT RightFoot
				{
					OFFSET -2.500000 -6.900000 0.000000
					CHANNELS 3 Zrotation Yrotation Xrotation
					JOINT RightToeBase
					{
						OFFSET -0.200000 -0.500000 1.950000
						CHANNELS 3 Zrotation Yrotation Xrotation
						End Site
						{
							OFFSET 0.000000 0.000000 0.000000
						}
					}
				}
			}
		}
	}
	JOINT LowerBack
	{
		OFFSET 0.000000 0.000000 0.000000
		CHANNELS 3 Zrotation Yrotation Xrotation
		JOINT Spine
		{
			OFFSET -0.087000 1.940000 -0.288900
			CHANNELS 3 Zrotation Yrotation Xrotation
			JOINT Spine1
			{
				OFFSET 0.000000 1.950000 0.060000
				CHANNELS 3 Zrotation Yrotation Xrotation
				JOINT Neck
				{
					OFFSET 0.000000 0.000000 0.000000
					CHANNELS 3 Zrotation Yrotation Xrotation
					JOINT Neck1
					{
						OFFSET 0.000000 1.600000 0.340000
						CHANNELS 3 Zrotation Yrotation Xrotation
						JOINT Head
						{
							OFFSET 0.000000 1.667000 -0.240000
							CHANNELS 3 Zrotation Yrotation Xrotation
							End Site
							{
								OFFSET 0.000000 0.000000 0.000000
							}
						}
					}
				}
				JOINT LeftShoulder
				{
					OFFSET 0.000000 0.000000 0.000000
					CHANNELS 3 Zrotation Yrotation Xrotation
					JOINT LeftArm
					{
						OFFSET 2.700000 1.550000 -0.730000
						CHANNELS 3 Zrotation Yrotation Xrotation
						JOINT LeftForeArm
						{
							OFFSET 5.450000 0.000000 0.000000
							CHANNELS 3 Zrotation Yrotation Xrotation
							JOINT LeftHand
							{
								OFFSET 3.450000 0.000000 0.000000
								CHANNELS 3 Zrotation Yrotation Xrotation
								JOINT LeftHandIndex1
								{
									OFFSET 0.750000 0.000000 0.000000
									CHANNELS 3 Zrotation Yrotation Xrotation
									End Site
									{
										OFFSET 0.000000 0.000000 0.000000
									}
								}
							}
						}
					}
				}
				JOINT RightShoulder
				{
					OFFSET 0.000000 0.000000 0.000000
					CHANNELS 3 Zrotation Yrotation Xrotation
					JOINT RightArm
					{
						OFFSET -2.700000 1.550000 -0.730000
						CHANNELS 3 Zrotation Yrotation Xrotation
						JOINT RightForeArm
						{
							OFFSET -5.450000 0.000000 0.000000
							CHANNELS 3 Zrotation Yrotation Xrotation
							JOINT RightHand
							{
								OFFSET -3.450000 0.000000 0.000000
								CHANNELS 3 Zrotation Yrotation Xrotation
								JOINT RightHandIndex1
								{
									OFFSET -0.750000 0.000000 0.000000
									CHANNELS 3 Zrotation Yrotation Xrotation
									End Site
									{
										OFFSET 0.000000 0.000000 0.000000
									}
								}
							}
						}
					}
				}
			}
		}
	}
}
MOTION
Frames: 7
Frame Time: 0.016667
-0.398610 17.262850 -0.416490 -0.738043 -3.700967 7.471388 -15.008673 12.288061 2.827586 24.325467 -1.079022 -9.642011 -1.212234 3.824671 -0.262288 -0.854435 5.923598 3.069972 -0.023190 -0.579830 -0.274890 18.607326 -10.264737 2.854376 -3.072073 0.063986 -4.583427 11.378272 -4.854444 0.441334 -0.462148 -4.545190 2.958817 0.039270 1.429920 0.688910 -4.264212 -1.010899 -7.053467 15.785388 -0.159252 1.168989 -9.168617 0.725227 7.503637 2.389928 -4.059875 -8.698943 -6.715234 5.573206 20.210269 -3.862790 1.410470 -4.630030 -17.380897 -7.189838 2.515672 4.604518 1.054505 2.012123 7.544167 -2.870469 -1.752960 -4.848845 2.666688 0.516720 0.842930 -0.438330 0.505290 12.600353 8.863083 6.366004 -6.011566 0.635911 -0.510679 -4.183321 5.032084 -0.558329 1.800465 -1.303745 -0.665910 0.739510 0.555250 -0.049360 
-0.386230 17.261630 -0.416770 -0.670868 -3.567208 7.436023 -15.004465 12.286014 2.815230 24.171150 -1.101211 -9.580285 -1.108395 3.784640 -0.349002 -0.856121 5.908936 3.079309 -0.020230 -0.576350 -0.275220 18.611750 -10.276635 2.848675 -3.217602 0.055712 -4.553701 11.243840 -4.840929 0.421643 -0.459565 -4.555035 2.957345 0.043140 1.434300 0.691410 -4.277173 -0.991343 -7.036677 15.833566 -0.185777 1.104510 -9.206176 0.696702 7.630816 2.370201 -4.030901 -8.611001 -6.652120 5.515017 20.150351 -3.876500 1.340750 -4.522550 -17.650569 -7.143573 2.517411 5.172083 1.507082 2.089427 7.255084 -2.230214 -1.759280 -4.855743 2.674729 0.508140 0.849200 -0.443510 0.507000 12.900256 8.735864 6.300201 -6.719086 0.052075 -0.450358 -3.883428 4.586101 -0.580471 1.798018 -1.315486 -0.663340 0.738350 0.554570 -0.047660 
-0.373430 17.261810 -0.419430 -0.636388 -3.415484 7.377605 -14.999298 12.293717 2.796563 24.033258 -1.121690 -9.572261 -0.865805 3.732365 -0.377831 -0.858019 5.885715 3.092910 -0.026890 -0.582770 -0.281320 18.615722 -10.291152 2.846861 -3.322864 0.050122 -4.541492 11.144918 -4.837271 0.423416 -0.455524 -4.563907 2.955594 0.040630 1.442710 0.694950 -4.290551 -0.977662 -7.022179 15.922709 -0.236431 1.066759 -9.249155 0.645679 7.755457 2.367271 -3.983751 -8.560236 -6.574117 5.453254 20.187302 -3.960770 1.316100 -4.311740 -17.822507 -7.134252 2.546378 5.583988 1.895626 2.152513 6.940631 -1.747936 -1.765437 -4.863876 2.677924 0.500670 0.857400 -0.448380 0.507680 13.068313 8.640109 6.252812 -7.186495 -0.314782 -0.404995 -3.555561 4.109799 -0.598557 1.800602 -1.320078 -0.663530 0.737570 0.557550 -0.044360 
-0.361300 17.261150 -0.422500 -0.622159 -3.276403 7.328994 -14.995221 12.297715 2.785480 23.921812 -1.137617 -9.582470 -0.716245 3.697553 -0.417303 -0.858152 5.869458 3.105480 -0.040140 -0.593020 -0.293920 18.619041 -10.304282 2.842955 -3.379999 0.044305 -4.546197 11.001014 -4.827749 0.448065 -0.446388 -4.567401 2.958877 0.036870 1.455730 0.692280 -4.301318 -0.962820 -7.011201 16.011035 -0.284889 1.024745 -9.305131 0.599226 7.864647 2.371259 -3.910969 -8.541378 -6.453566 5.397287 20.230806 -3.997720 1.290000 -4.011890 -17.861835 -7.134667 2.573989 5.910186 2.111876 2.205048 6.545031 -1.255941 -1.772039 -4.875539 2.672915 0.490510 0.867390 -0.458000 0.507650 13.095336 8.542651 6.232939 -7.363189 -0.516421 -0.375484 -3.412062 3.693164 -0.618297 1.805511 -1.319928 -0.667980 0.741410 0.563100 -0.039640 
-0.349300 17.259980 -0.426160 -0.631659 -3.138808 7.293394 -14.992217 12.297054 2.781585 23.858588 -1.150210 -9.624997 -0.648582 3.677670 -0.454903 -0.861418 5.863965 3.115546 -0.049770 -0.602450 -0.302500 18.621894 -10.314245 2.836944 -3.409888 0.045165 -4.573002 10.867998 -4.821628 0.500354 -0.437757 -4.568062 2.965207 0.034640 1.470030 0.688830 -4.310063 -0.948036 -7.003155 16.116915 -0.339211 0.988240 -9.351426 0.548437 7.964613 2.380959 -3.857376 -8.533670 -6.361840 5.377446 20.243422 -4.039560 1.288590 -3.754100 -17.840034 -7.103678 2.606518 5.991986 2.287111 2.237989 6.427604 -0.962191 -1.777009 -4.886687 2.664869 0.484560 0.877530 -0.467970 0.509930 13.053390 8.442980 6.205786 -7.416852 -0.559021 -0.363262 -3.352367 3.343219 -0.637771 1.808076 -1.318257 -0.675570 0.748650 0.566770 -0.037240 
-0.337270 17.259780 -0.429610 -0.623424 -3.014557 7.277260 -14.989713 12.295909 2.778793 23.774938 -1.164297 -9.671306 -0.616872 3.657923 -0.495955 -0.864241 5.859560 3.124548 -0.056290 -0.609330 -0.311280 18.623701 -10.322440 2.831306 -3.487732 0.056053 -4.630249 10.827266 -4.826490 0.565198 -0.431392 -4.572313 2.968060 0.034080 1.483910 0.689320 -4.316798 -0.935290 -6.995226 16.219930 -0.397521 0.945745 -9.422184 0.507319 8.059398 2.387914 -3.850977 -8.544677 -6.340800 5.336296 20.194453 -4.050640 1.220330 -3.551330 -17.761692 -7.042830 2.641044 5.852927 2.411297 2.247852 6.593758 -0.841876 -1.776230 -4.897174 2.660025 0.479710 0.886580 -0.475150 0.514880 12.963101 8.362839 6.193175 -7.372731 -0.548076 -0.353629 -3.328525 3.099149 -0.652400 1.810004 -1.318289 -0.681140 0.754360 0.569190 -0.033130 
-0.328160 17.259830 -0.433240 -0.599232 -2.957515 7.278618 -14.990346 12.297147 2.776256 23.716659 -1.172561 -9.719420 -0.610938 3.647990 -0.500900 -0.864806 5.854453 3.132028 -0.057210 -0.611110 -0.315760 18.622599 -10.324593 2.828996 -3.544724 0.074089 -4.697184 10.788634 -4.814090 0.564685 -0.426513 -4.572054 2.970963 0.034620 1.493000 0.688930 -4.314604 -0.933775 -6.989861 16.206173 -0.421737 0.910233 -9.403015 0.486519 8.117981 2.365584 -3.868683 -8.567382 -6.357780 5.285996 20.113968 -4.006080 1.117720 -3.385650 -17.657863 -6.998731 2.678494 5.704385 2.503052 2.256089 6.694295 -0.768798 -1.774417 -4.901386 2.661296 0.474980 0.891500 -0.481500 0.519780 12.912248 8.342091 6.190579 -7.306411 -0.469067 -0.353021 -3.356049 2.910440 -0.667075 1.813833 -1.321411 -0.683370 0.756960 0.568350 -0.029470 
